<svg xmlns="http://www.w3.org/2000/svg" xmlns:xlink="http://www.w3.org/1999/xlink" viewBox="0 0 365.93 342.06"><defs><style>.cls-1{fill:url(#linear-gradient);}</style><linearGradient id="linear-gradient" y1="171.03" x2="365.93" y2="171.03" gradientUnits="userSpaceOnUse"><stop offset="0.05" stop-color="#0049e9"/><stop offset="0.11" stop-color="#0f5fed"/><stop offset="0.23" stop-color="#3599f7"/><stop offset="0.32" stop-color="#55c8ff"/><stop offset="0.65" stop-color="#e9fbff"/><stop offset="0.8" stop-color="#8afeff"/><stop offset="0.83" stop-color="#7ff"/><stop offset="1" stop-color="#0639ff"/></linearGradient></defs><g id="Layer_2" data-name="Layer 2"><g id="Layer_1-2" data-name="Layer 1"><path class="cls-1" d="M233.33,174.2a30.66,30.66,0,1,1-30.66-30.66A30.66,30.66,0,0,1,233.33,174.2ZM37.71,180.49l-.12.1a7.52,7.52,0,0,1-10.75-.78q-.27-4.63-.29-9.3a6.55,6.55,0,0,1,.73-.85,7.49,7.49,0,0,1,9.85-.68,1.84,1.84,0,0,1,.22.17c0,.18,0,.37,0,.54Q37.34,175.14,37.71,180.49Zm328.22-10.8A169.78,169.78,0,0,1,226,336.8v-11c73.47-13.94,129.18-78.63,129.18-156.1,0-87.61-71.28-158.89-158.9-158.89A158.41,158.41,0,0,0,83.93,57.39,161.41,161.41,0,0,0,71.68,71.14a158.13,158.13,0,0,0-33.25,79.92H27.55A167.84,167.84,0,0,1,51.81,80.49,170.81,170.81,0,0,1,76.24,49.7a169.7,169.7,0,0,1,289.69,120ZM180,327.76v10.85A168.41,168.41,0,0,1,76.24,289.68a171.41,171.41,0,0,1-19.58-23.4,167.86,167.86,0,0,1-27.92-69.22h11A159.26,159.26,0,0,0,180,327.76ZM37.71,180.49l-.12.1a69.47,69.47,0,0,1-.53-8.58c0-1,0-2,.07-3a1.84,1.84,0,0,1,.22.17c0,.18,0,.37,0,.54Q37.34,175.14,37.71,180.49Zm259.66-10.8a101.23,101.23,0,0,1-137,94.64,99.1,99.1,0,0,1-12.36-5.66,100.14,100.14,0,0,1-15.47-10.36,105.26,105.26,0,0,1-7.87-7.1l-1.42-1.44a101.15,101.15,0,0,1-3.53-136.29c1.58-1.81,3.23-3.59,5-5.3q1.91-1.92,3.91-3.71a101.14,101.14,0,0,1,168.74,75.22Zm-10.8,0A90.38,90.38,0,0,0,155.23,89.14a88.87,88.87,0,0,0-14.95,9.62,92.3,92.3,0,0,0-7.93,7l-.93,1a90.36,90.36,0,0,0,.93,126.81c.79.79,1.59,1.57,2.4,2.32a92.66,92.66,0,0,0,9.24,7.53,89.24,89.24,0,0,0,27.78,13.28A90.7,90.7,0,0,0,196.23,260a90.32,90.32,0,0,0,90.34-90.34Zm-73,2.32a106.93,106.93,0,0,1-41.82,84.69,103.69,103.69,0,0,1-11.35,7.63A106.71,106.71,0,1,1,210,144.41h0A106.39,106.39,0,0,1,213.59,172Zm-16.42,32.36a96,96,0,0,0,1.39-60.55h0a96.26,96.26,0,0,0-55-60.49A95.88,95.88,0,0,0,40.08,103.05c-.38.36-.76.74-1.13,1.11A96,96,0,0,0,148.06,258.67a96.46,96.46,0,0,0,49.11-54.3ZM37.59,180.59a7.52,7.52,0,0,1-10.75-.78l-.23-.28q-.34-3.72-.35-7.52c0-.37,0-.74,0-1.1.09-.14.18-.27.28-.4a6.55,6.55,0,0,1,.73-.85,7.49,7.49,0,0,1,9.85-.68c-.05,1-.07,2-.07,3A69.47,69.47,0,0,0,37.59,180.59ZM187.34,172a80.38,80.38,0,0,1-4.24,25.79q-1,2.8-2.1,5.52a81,81,0,0,1-37,40.1,78.4,78.4,0,0,1-11.4,4.89A80.68,80.68,0,0,1,30.25,197.06H41.72a69.73,69.73,0,0,0,81.58,42.71,67.37,67.37,0,0,0,11.45-3.88,70,70,0,0,0,40.13-48.73h0A69.92,69.92,0,0,0,175.5,160h0a70,70,0,0,0-44.08-53.22,67.87,67.87,0,0,0-11.65-3.28,69.87,69.87,0,0,0-79.49,47.58H29a80.6,80.6,0,0,1,99.6-56.59,80.74,80.74,0,0,1,55.57,55.26A80.28,80.28,0,0,1,187.34,172Zm21.77,156.4a8.84,8.84,0,0,0-1.32-1.07,8,8,0,0,0-9.21.37,8.71,8.71,0,0,0-.8.7,8,8,0,0,0-.47,10.8l.47.51a8,8,0,1,0,11.33-11.31ZM37.91,169.66c-.18-.18-.37-.35-.56-.51a1.84,1.84,0,0,0-.22-.17,7.49,7.49,0,0,0-9.85.68,6.55,6.55,0,0,0-.73.85c-.1.13-.19.26-.28.4a7.42,7.42,0,0,0-1.2,4.06,7.55,7.55,0,0,0,1.54,4.56l.23.28a7.52,7.52,0,0,0,10.75.78l.12-.1.2-.2a7.52,7.52,0,0,0,0-10.63Zm0,0c-.18-.18-.37-.35-.56-.51a1.84,1.84,0,0,0-.22-.17,7.49,7.49,0,0,0-9.85.68,6.55,6.55,0,0,0-.73.85c-.1.13-.19.26-.28.4a7.42,7.42,0,0,0-1.2,4.06,7.55,7.55,0,0,0,1.54,4.56l.23.28a7.52,7.52,0,0,0,10.75.78l.12-.1.2-.2a7.52,7.52,0,0,0,0-10.63Zm0,0c-.18-.18-.37-.35-.56-.51a1.84,1.84,0,0,0-.22-.17,7.49,7.49,0,0,0-9.85.68,6.55,6.55,0,0,0-.73.85c-.1.13-.19.26-.28.4a7.42,7.42,0,0,0-1.2,4.06,7.55,7.55,0,0,0,1.54,4.56l.23.28a7.52,7.52,0,0,0,10.75.78l.12-.1.2-.2a7.52,7.52,0,0,0,0-10.63Zm171.2,158.75a8.84,8.84,0,0,0-1.32-1.07,8,8,0,0,0-9.21.37,8.71,8.71,0,0,0-.8.7,8,8,0,0,0-.47,10.8l.47.51a8,8,0,1,0,11.33-11.31Z"/></g></g></svg>