<svg width="48" height="48" viewBox="0 0 48 48" fill="none" xmlns="http://www.w3.org/2000/svg">
<g clip-path="url(#clip0_1_135)">
<path d="M26.1787 38.8278V33.824C27.6397 33.4966 29.0095 32.8473 30.1888 31.9234C31.368 30.9994 32.3271 29.8239 32.9963 28.4822L37.9803 29.35C37.0274 31.8355 35.4325 34.0228 33.359 35.6881C31.2854 37.3534 28.8075 38.4369 26.1787 38.8278Z" fill="white"/>
<path d="M13.4373 34.1044V45.1181C12.3018 44.549 11.214 43.8891 10.1845 43.1448V37.5087H4.64657C3.89418 36.4311 3.23303 35.2923 2.67004 34.1044H13.4373Z" fill="white"/>
<path d="M42.3203 30.1116L46.4945 30.8409C43.7751 39.8513 35.8217 46.5826 26.1787 47.4896V43.2106C29.5804 42.8229 32.8182 41.5366 35.5607 39.4834C38.3032 37.4302 40.452 34.6838 41.787 31.5252C41.9828 31.059 42.1606 30.5878 42.3203 30.1116Z" fill="white"/>
<path d="M21.8409 0.5V4.78825C17.498 5.27857 13.45 7.23205 10.36 10.3287C7.27006 13.4253 5.32136 17.4815 4.83315 21.8328H0.5C1.52857 10.5144 10.537 1.50513 21.8409 0.5Z" fill="white"/>
<path d="M21.8409 9.17114V14.1841C19.9743 14.6 18.2647 15.5405 16.9126 16.8952C15.5605 18.2499 14.6218 19.9627 14.2067 21.8328H9.20776C9.67817 18.6433 11.1605 15.6902 13.4355 13.41C15.7106 11.1298 18.6576 9.6436 21.8409 9.17114Z" fill="white"/>
<path d="M38.9708 24C38.9708 24.3716 38.9569 24.742 38.9305 25.1067L34.0421 24.2527C34.0421 24.1708 34.0421 24.0877 34.0421 24.0058C34.0414 21.7173 33.2621 19.4974 31.8328 17.7123C30.4034 15.9271 28.4095 14.6835 26.1798 14.1864V9.17114C33.4017 10.2271 38.9708 16.4748 38.9708 24Z" fill="white"/>
<path d="M47.5 24C47.5002 24.862 47.4537 25.7234 47.3607 26.5803L43.2141 25.8568C43.2725 25.2413 43.3017 24.6224 43.3017 24C43.3047 19.2486 41.5601 14.6627 38.4014 11.1187C35.2426 7.5746 30.8912 5.3209 26.1787 4.78824V0.510376C31.2647 0.988706 36.0558 3.11713 39.8243 6.57232V10.3805H43.1853C46.0003 14.3613 47.5083 19.1214 47.5 24Z" fill="white"/>
<path d="M29.201 24C29.2017 25.3292 28.6919 26.6076 27.7774 27.5705C27.0298 28.3558 26.0596 28.8923 24.998 29.1073C23.9363 29.3224 22.8343 29.2056 21.8409 28.7729V47.5C20.3419 47.3674 18.8592 47.0903 17.4133 46.6726V30.1208H1.20146C0.856447 28.8287 0.621781 27.5096 0.5 26.1776H19.1791C18.8649 25.4966 18.7022 24.7554 18.7022 24.0052C18.7022 23.255 18.8649 22.5138 19.1791 21.8328C19.6611 20.796 20.4666 19.9443 21.474 19.4063C22.4815 18.8682 23.6362 18.673 24.7641 18.85C25.8919 19.0271 26.9318 19.5667 27.7267 20.3877C28.5217 21.2086 29.0286 22.2662 29.1711 23.4011C29.1927 23.6 29.2027 23.8 29.201 24Z" fill="white"/>
</g>
<defs>
<clipPath id="clip0_1_135">
<rect width="47" height="47" fill="white" transform="translate(0.5 0.5)"/>
</clipPath>
</defs>
</svg>
