<svg width="203" height="66" viewBox="0 0 203 66" fill="none" xmlns="http://www.w3.org/2000/svg">
<path d="M41.8537 39.5247C45.1208 39.5247 47.7694 36.8761 47.7694 33.609C47.7694 30.3418 45.1208 27.6933 41.8537 27.6933C38.5865 27.6933 35.938 30.3418 35.938 33.609C35.938 36.8761 38.5865 39.5247 41.8537 39.5247Z" fill="black"/>
<path d="M9.9582 32.7387C9.9582 32.7067 9.9582 32.6693 9.9582 32.6346L9.91548 32.6026C9.66277 32.4109 9.35441 32.3068 9.03721 32.3063C8.84699 32.3062 8.65866 32.3439 8.48314 32.4172C8.30762 32.4906 8.14842 32.598 8.01478 32.7334C7.96265 32.7841 7.91529 32.8395 7.87329 32.8989C7.87329 33.4969 7.89198 34.0948 7.92935 34.6928C8.05453 34.8406 8.20797 34.962 8.38066 35.0497C8.55336 35.1374 8.74183 35.1898 8.93503 35.2037C9.12823 35.2176 9.32226 35.1928 9.50575 35.1308C9.68924 35.0687 9.85849 34.9706 10.0036 34.8423L10.0276 34.8236C9.97688 34.1349 9.9582 33.4381 9.9582 32.7387ZM63.7653 9.58854C57.6242 3.44902 49.2961 0 40.6124 0C31.9288 0 23.6006 3.44902 17.4596 9.58854C15.666 11.3808 14.085 13.3739 12.7479 15.5282C10.1858 19.6579 8.58556 24.3109 8.0655 29.1429H10.1664C10.8317 23.5175 13.0425 18.1865 16.5536 13.7413C20.0647 9.29613 24.7387 5.91065 30.057 3.96053C35.3753 2.01041 41.1299 1.5719 46.6822 2.69367C52.2346 3.81545 57.3676 6.45363 61.5117 10.3155C65.6558 14.1773 68.6488 19.1118 70.1588 24.5714C71.6688 30.031 71.6366 35.8022 70.0658 41.2446C68.495 46.687 65.4471 51.5878 61.2602 55.4032C57.0732 59.2186 51.9111 61.7993 46.3466 62.8591V64.9813C52.2397 63.9321 57.7325 61.2877 62.228 57.3356C66.7236 53.3834 70.0499 48.2747 71.8455 42.5645C73.6411 36.8544 73.8373 30.7614 72.4127 24.9476C70.9881 19.1338 67.9973 13.8217 63.7653 9.58854ZM17.5984 52.9711C16.7094 51.9648 15.8889 50.8999 15.1424 49.7837C12.7565 46.2388 11.1438 42.2312 10.4093 38.0217H8.29508C8.80158 41.1886 9.77781 44.2621 11.1915 47.1408C11.9158 48.6146 12.753 50.0301 13.6955 51.3747C14.8129 52.9897 16.0726 54.5013 17.4596 55.8916C22.8232 61.2839 29.9083 64.6243 37.4811 65.331V63.2381C29.7954 62.4473 22.6929 58.7798 17.5984 52.9711ZM9.9582 32.7387C9.9582 32.7067 9.9582 32.6693 9.9582 32.6346L9.91548 32.6026C9.91548 32.7948 9.90214 32.9897 9.90214 33.1872C9.9021 33.7405 9.93598 34.2932 10.0036 34.8423L10.0276 34.8236C9.97688 34.1349 9.9582 33.4381 9.9582 32.7387Z" fill="black"/>
<path d="M54.4112 18.9426C50.8858 15.4012 46.1335 13.3512 41.1383 13.217C36.1431 13.0829 31.2876 14.8748 27.5771 18.2218C27.3101 18.4514 27.0672 18.689 26.8216 18.9372C26.4906 19.2656 26.1729 19.6099 25.8686 19.9597C22.6828 23.6372 20.9857 28.3722 21.1102 33.2361C21.2346 38.1001 23.1716 42.7421 26.5413 46.2519L26.8083 46.5322C27.2941 47.0145 27.8004 47.471 28.3272 47.9016C30.6894 49.8082 33.4632 51.1383 36.4287 51.7867C39.3943 52.435 42.4701 52.3837 45.4124 51.6369C48.3547 50.89 51.0826 49.4682 53.3799 47.4839C55.6772 45.4997 57.4808 43.0077 58.6478 40.2054C60.1161 36.6383 60.4973 32.7167 59.7435 28.9336C58.9897 25.1505 57.1346 21.6745 54.4112 18.9426ZM52.9376 45.0639C51.3232 46.6882 49.4025 47.9759 47.2868 48.8525C45.1711 49.7291 42.9025 50.1772 40.6124 50.1707C39.0172 50.1725 37.4292 49.956 35.8927 49.5274C35.0784 49.3012 34.2824 49.0139 33.5114 48.6678C32.4641 48.2008 31.4661 47.6303 30.5322 46.9646C29.9074 46.5192 29.3118 46.0341 28.749 45.5124C28.5942 45.3683 28.4393 45.2161 28.2872 45.0639C25.0504 41.8262 23.2175 37.4449 23.1846 32.8669C23.1516 28.2889 24.9212 23.8817 28.111 20.5977L28.2898 20.4135C28.7727 19.931 29.2835 19.4773 29.8195 19.0547C30.7156 18.3369 31.6815 17.7109 32.7026 17.186C33.4562 16.8048 34.2359 16.4774 35.0357 16.2063C38.7641 14.9447 42.8097 14.9818 46.5143 16.3116C50.2189 17.6414 53.3646 20.1856 55.4395 23.5303C57.5144 26.8751 58.3965 30.8235 57.9422 34.7333C57.488 38.643 55.7241 42.284 52.9376 45.0639Z" fill="black"/>
<path d="M43.2632 27.8641C41.9878 23.1293 39.0708 19.0021 35.033 16.2197C34.3089 15.7186 33.5527 15.2656 32.7692 14.8635C27.941 12.4639 22.3644 12.0529 17.2365 13.7186C12.1086 15.3842 7.83802 18.9939 5.34149 23.7728C2.84497 28.5516 2.32146 34.1188 3.88332 39.2793C5.44519 44.4398 8.96793 48.7823 13.6954 51.3747C14.9413 52.0439 16.2539 52.5807 17.6116 52.9764C20.2901 53.7544 23.0986 53.9805 25.8669 53.6409C28.6353 53.3013 31.3059 52.4032 33.7169 51.001C34.4779 50.5579 35.2091 50.0657 35.9059 49.5274C39.1381 47.0493 41.5633 43.6688 42.8752 39.8131C44.187 35.9573 44.3267 31.7992 43.2765 27.8641H43.2632ZM33.5114 48.6678C30.8137 50.442 27.6984 51.4785 24.4756 51.6743C21.2528 51.8701 18.0349 51.2182 15.1423 49.7837C12.5049 48.4808 10.2161 46.5681 8.46555 44.204C6.715 41.8399 5.55318 39.0926 5.07639 36.1899C4.5996 33.2871 4.82159 30.3126 5.72394 27.5127C6.6263 24.7129 8.18304 22.1685 10.2651 20.0905C10.3372 20.0184 10.4092 19.9463 10.484 19.8769C13.0791 17.3668 16.3516 15.6705 19.8986 14.997C23.4456 14.3235 27.1122 14.7021 30.4468 16.0862C31.2219 16.4093 31.9746 16.7838 32.6998 17.2074C36.7062 19.5569 39.6886 23.3202 41.0608 27.7574C42.2349 31.5781 42.1412 35.6761 40.7939 39.4392C39.4259 43.2208 36.8712 46.4582 33.5114 48.6678Z" fill="black"/>
<path d="M9.90206 33.1872C9.90206 32.9897 9.90206 32.7948 9.91541 32.6026C9.66269 32.4109 9.35433 32.3068 9.03713 32.3062C8.84691 32.3062 8.65858 32.3439 8.48307 32.4172C8.30755 32.4906 8.14835 32.598 8.0147 32.7334C7.96257 32.7841 7.91521 32.8395 7.87322 32.8989C7.85329 32.9232 7.83543 32.9491 7.81982 32.9763C7.81982 33.0457 7.81982 33.1151 7.81982 33.1872C7.81982 33.6757 7.84385 34.1589 7.88656 34.6394L7.93194 34.6928C8.05712 34.8406 8.21056 34.962 8.38326 35.0497C8.55595 35.1374 8.74442 35.1898 8.93762 35.2037C9.13082 35.2176 9.32486 35.1928 9.50835 35.1308C9.69184 35.0687 9.86109 34.9706 10.0062 34.8423C9.93768 34.2932 9.90291 33.7405 9.90206 33.1872ZM38.2899 28.8999C37.3468 25.6409 35.3634 22.7799 32.6423 20.7535C29.9212 18.7271 26.6118 17.6466 23.2192 17.6768C19.8266 17.7071 16.537 18.8464 13.8525 20.921C11.168 22.9956 9.23588 25.8916 8.35106 29.1669H10.5214C11.5068 26.0202 13.6132 23.3448 16.4408 21.6485C19.2684 19.9522 22.6204 19.3532 25.8605 19.965C26.6281 20.1081 27.3813 20.3198 28.1109 20.5977C30.2959 21.4271 32.228 22.8095 33.7184 24.6097C35.2088 26.4098 36.2063 28.566 36.6134 30.8674C36.7487 31.6332 36.8166 32.4095 36.8163 33.1872C36.8153 34.1695 36.707 35.1488 36.4933 36.1077C36.0296 38.1717 35.0874 40.098 33.7427 41.7311C32.398 43.3643 30.6884 44.6586 28.7516 45.5098C28.0399 45.8252 27.3009 46.0754 26.5439 46.2572C25.5017 46.5129 24.4323 46.642 23.3592 46.6416C20.6425 46.6359 17.991 45.8096 15.7521 44.2709C13.5132 42.7323 11.7914 40.5531 10.8124 38.0191H8.58598C9.22748 39.9695 10.2488 41.7736 11.5909 43.3274C12.9331 44.8812 14.5696 46.1539 16.406 47.0721C18.2425 47.9903 20.2425 48.5359 22.2909 48.6774C24.3392 48.8188 26.3953 48.5534 28.3405 47.8963C29.0977 47.6403 29.8333 47.3243 30.5402 46.9513C33.7453 45.2757 36.2693 42.5394 37.6812 39.2097C37.828 38.86 37.9615 38.5049 38.087 38.1418C39.0988 35.1439 39.1724 31.9087 38.2979 28.8679L38.2899 28.8999Z" fill="black"/>
<path d="M43.5488 64.4528C43.5497 64.7587 43.4595 65.058 43.2899 65.3126C43.1202 65.5672 42.8787 65.7657 42.596 65.8827C42.3133 65.9997 42.0022 66.03 41.7023 65.9698C41.4023 65.9097 41.127 65.7616 40.9113 65.5446L40.8206 65.4485C40.573 65.1522 40.4451 64.7742 40.4619 64.3885C40.4787 64.0028 40.639 63.6372 40.9113 63.3636C40.9604 63.3154 41.0121 63.27 41.0662 63.2275C41.3187 63.034 41.6249 62.9235 41.9428 62.911C42.2606 62.8986 42.5745 62.9849 42.8414 63.158C42.9371 63.2174 43.0266 63.2862 43.1083 63.3636C43.25 63.5071 43.3619 63.6772 43.4375 63.8641C43.5131 64.0511 43.551 64.2511 43.5488 64.4528Z" fill="black"/>
<path d="M10.4921 33.7585C10.4912 33.9474 10.4531 34.1342 10.3798 34.3083C10.3065 34.4824 10.1995 34.6403 10.065 34.7729L10.0276 34.813L10.0036 34.8316C9.85849 34.96 9.68924 35.0581 9.50575 35.1201C9.32226 35.1822 9.12823 35.207 8.93503 35.1931C8.74183 35.1791 8.55335 35.1268 8.38066 35.039C8.20796 34.9513 8.05453 34.83 7.92935 34.6822L7.88397 34.6288C7.69206 34.3751 7.58803 34.0659 7.58765 33.7478C7.5872 33.47 7.66793 33.1982 7.8199 32.9656C7.83551 32.9384 7.85336 32.9125 7.87329 32.8882C7.91528 32.8288 7.96264 32.7734 8.01477 32.7227C8.14842 32.5874 8.30762 32.4799 8.48314 32.4066C8.65865 32.3333 8.84699 32.2955 9.0372 32.2956C9.35441 32.2962 9.66276 32.4002 9.91548 32.5919L9.95819 32.6373L10.065 32.7361C10.1999 32.8701 10.307 33.0293 10.3803 33.2048C10.4536 33.3802 10.4916 33.5684 10.4921 33.7585Z" fill="black"/>
<path d="M10.4921 33.7585C10.4912 33.9474 10.4531 34.1342 10.3798 34.3083C10.3065 34.4824 10.1995 34.6403 10.065 34.7729L10.0276 34.813L10.0036 34.8316C9.85849 34.96 9.68924 35.0581 9.50575 35.1201C9.32226 35.1822 9.12823 35.207 8.93503 35.1931C8.74183 35.1791 8.55335 35.1268 8.38066 35.039C8.20796 34.9513 8.05453 34.83 7.92935 34.6822L7.88397 34.6288C7.69206 34.3751 7.58803 34.0659 7.58765 33.7478C7.5872 33.47 7.66793 33.1982 7.8199 32.9656C7.83551 32.9384 7.85336 32.9125 7.87329 32.8882C7.91528 32.8288 7.96264 32.7734 8.01477 32.7227C8.14842 32.5874 8.30762 32.4799 8.48314 32.4066C8.65865 32.3333 8.84699 32.2955 9.0372 32.2956C9.35441 32.2962 9.66276 32.4002 9.91548 32.5919L9.95819 32.6373L10.065 32.7361C10.1999 32.8701 10.307 33.0293 10.3803 33.2048C10.4536 33.3802 10.4916 33.5684 10.4921 33.7585Z" fill="black"/>
<path d="M10.4921 33.7585C10.4912 33.9474 10.4531 34.1342 10.3798 34.3083C10.3065 34.4824 10.1995 34.6403 10.065 34.7729L10.0276 34.813L10.0036 34.8316C9.85849 34.96 9.68924 35.0581 9.50575 35.1201C9.32226 35.1822 9.12823 35.207 8.93503 35.1931C8.74183 35.1791 8.55335 35.1268 8.38066 35.039C8.20796 34.9513 8.05453 34.83 7.92935 34.6822L7.88397 34.6288C7.69206 34.3751 7.58803 34.0659 7.58765 33.7478C7.5872 33.47 7.66793 33.1982 7.8199 32.9656C7.83551 32.9384 7.85336 32.9125 7.87329 32.8882C7.91528 32.8288 7.96264 32.7734 8.01477 32.7227C8.14842 32.5874 8.30762 32.4799 8.48314 32.4066C8.65865 32.3333 8.84699 32.2955 9.0372 32.2956C9.35441 32.2962 9.66276 32.4002 9.91548 32.5919L9.95819 32.6373L10.065 32.7361C10.1999 32.8701 10.307 33.0293 10.3803 33.2048C10.4536 33.3802 10.4916 33.5684 10.4921 33.7585Z" fill="black"/>
<path d="M43.5488 64.4528C43.5497 64.7587 43.4595 65.058 43.2899 65.3126C43.1202 65.5672 42.8787 65.7657 42.596 65.8827C42.3133 65.9997 42.0022 66.03 41.7023 65.9698C41.4023 65.9097 41.127 65.7616 40.9113 65.5446L40.8206 65.4485C40.573 65.1522 40.4451 64.7742 40.4619 64.3885C40.4787 64.0028 40.639 63.6372 40.9113 63.3636C40.9604 63.3154 41.0121 63.27 41.0662 63.2275C41.3187 63.034 41.6249 62.9235 41.9428 62.911C42.2606 62.8986 42.5745 62.9849 42.8414 63.158C42.9371 63.2174 43.0266 63.2862 43.1083 63.3636C43.25 63.5071 43.3619 63.6772 43.4375 63.8641C43.5131 64.0511 43.551 64.2511 43.5488 64.4528Z" fill="black"/>
<path d="M79.9927 7.19105V4.90909H90.7441V7.19105H86.7363V18H84.0005V7.19105H79.9927ZM92.5147 18V4.90909H95.2825V10.3104H100.901V4.90909H103.662V18H100.901V12.5923H95.2825V18H92.5147ZM105.944 18V4.90909H114.765V7.19105H108.712V10.3104H114.312V12.5923H108.712V15.718H114.791V18H105.944ZM92.5211 33.4545C92.5211 34.8821 92.2505 36.0966 91.7093 37.098C91.1724 38.0994 90.4395 38.8643 89.5105 39.3928C88.5858 39.9169 87.546 40.179 86.3912 40.179C85.2278 40.179 84.1838 39.9148 83.2591 39.3864C82.3343 38.858 81.6035 38.093 81.0666 37.0916C80.5297 36.0902 80.2612 34.8778 80.2612 33.4545C80.2612 32.027 80.5297 30.8125 81.0666 29.8111C81.6035 28.8097 82.3343 28.0469 83.2591 27.5227C84.1838 26.9943 85.2278 26.7301 86.3912 26.7301C87.546 26.7301 88.5858 26.9943 89.5105 27.5227C90.4395 28.0469 91.1724 28.8097 91.7093 29.8111C92.2505 30.8125 92.5211 32.027 92.5211 33.4545ZM89.715 33.4545C89.715 32.5298 89.5765 31.75 89.2995 31.1151C89.0268 30.4801 88.6412 29.9986 88.1426 29.6705C87.644 29.3423 87.0602 29.1783 86.3912 29.1783C85.7221 29.1783 85.1383 29.3423 84.6397 29.6705C84.1412 29.9986 83.7534 30.4801 83.4764 31.1151C83.2037 31.75 83.0673 32.5298 83.0673 33.4545C83.0673 34.3793 83.2037 35.1591 83.4764 35.794C83.7534 36.429 84.1412 36.9105 84.6397 37.2386C85.1383 37.5668 85.7221 37.7308 86.3912 37.7308C87.0602 37.7308 87.644 37.5668 88.1426 37.2386C88.6412 36.9105 89.0268 36.429 89.2995 35.794C89.5765 35.1591 89.715 34.3793 89.715 33.4545ZM93.4751 29.1911V26.9091H104.227V29.1911H100.219V40H97.483V29.1911H93.4751ZM105.997 40V26.9091H108.765V32.3104H114.384V26.9091H117.145V40H114.384V34.5923H108.765V40H105.997ZM119.427 40V26.9091H128.248V29.1911H122.195V32.3104H127.794V34.5923H122.195V37.718H128.273V40H119.427ZM130.448 40V26.9091H135.613C136.602 26.9091 137.445 27.0859 138.144 27.4396C138.847 27.7891 139.382 28.2855 139.749 28.929C140.119 29.5682 140.305 30.3203 140.305 31.1854C140.305 32.0547 140.117 32.8026 139.742 33.429C139.367 34.0511 138.824 34.5284 138.112 34.8608C137.405 35.1932 136.548 35.3594 135.543 35.3594H132.085V33.1349H135.095C135.624 33.1349 136.063 33.0625 136.412 32.9176C136.762 32.7727 137.021 32.5554 137.192 32.2656C137.367 31.9759 137.454 31.6158 137.454 31.1854C137.454 30.7507 137.367 30.3842 137.192 30.0859C137.021 29.7876 136.759 29.5618 136.406 29.4084C136.056 29.2507 135.615 29.1719 135.083 29.1719H133.216V40H130.448ZM137.518 34.0426L140.771 40H137.716L134.533 34.0426H137.518ZM80.4913 62V48.9091H85.7328C86.6958 48.9091 87.4991 49.0518 88.1426 49.3374C88.786 49.6229 89.2697 50.0192 89.5936 50.5263C89.9174 51.0291 90.0794 51.6087 90.0794 52.2649C90.0794 52.7763 89.9771 53.2259 89.7726 53.6136C89.568 53.9972 89.2868 54.3125 88.9288 54.5597C88.5751 54.8026 88.1703 54.9751 87.7143 55.0774V55.2053C88.2129 55.2266 88.6795 55.3672 89.1142 55.6271C89.5531 55.8871 89.9089 56.2514 90.1816 56.7202C90.4544 57.1847 90.5907 57.7386 90.5907 58.3821C90.5907 59.0767 90.4181 59.6967 90.073 60.2422C89.7321 60.7834 89.2271 61.2116 88.5581 61.527C87.889 61.8423 87.0645 62 86.0843 62H80.4913ZM83.2591 59.7372H85.5154C86.2868 59.7372 86.8493 59.5902 87.2029 59.2962C87.5566 58.9979 87.7335 58.6016 87.7335 58.1072C87.7335 57.745 87.6461 57.4254 87.4714 57.1484C87.2967 56.8714 87.0474 56.6541 86.7235 56.4964C86.4039 56.3388 86.0225 56.2599 85.5794 56.2599H83.2591V59.7372ZM83.2591 54.3871H85.3109C85.6902 54.3871 86.0268 54.321 86.3208 54.1889C86.6191 54.0526 86.8535 53.8608 87.024 53.6136C87.1987 53.3665 87.286 53.0703 87.286 52.7251C87.286 52.2521 87.1177 51.8707 86.7811 51.581C86.4487 51.2912 85.9757 51.1463 85.362 51.1463H83.2591V54.3871ZM92.3917 62V48.9091H95.1594V59.718H100.772V62H92.3917ZM114.125 55.4545C114.125 56.8821 113.854 58.0966 113.313 59.098C112.776 60.0994 112.043 60.8643 111.114 61.3928C110.189 61.9169 109.15 62.179 107.995 62.179C106.831 62.179 105.787 61.9148 104.863 61.3864C103.938 60.858 103.207 60.093 102.67 59.0916C102.133 58.0902 101.865 56.8778 101.865 55.4545C101.865 54.027 102.133 52.8125 102.67 51.8111C103.207 50.8097 103.938 50.0469 104.863 49.5227C105.787 48.9943 106.831 48.7301 107.995 48.7301C109.15 48.7301 110.189 48.9943 111.114 49.5227C112.043 50.0469 112.776 50.8097 113.313 51.8111C113.854 52.8125 114.125 54.027 114.125 55.4545ZM111.319 55.4545C111.319 54.5298 111.18 53.75 110.903 53.1151C110.63 52.4801 110.245 51.9986 109.746 51.6705C109.248 51.3423 108.664 51.1783 107.995 51.1783C107.326 51.1783 106.742 51.3423 106.243 51.6705C105.745 51.9986 105.357 52.4801 105.08 53.1151C104.807 53.75 104.671 54.5298 104.671 55.4545C104.671 56.3793 104.807 57.1591 105.08 57.794C105.357 58.429 105.745 58.9105 106.243 59.2386C106.742 59.5668 107.326 59.7308 107.995 59.7308C108.664 59.7308 109.248 59.5668 109.746 59.2386C110.245 58.9105 110.63 58.429 110.903 57.794C111.18 57.1591 111.319 56.3793 111.319 55.4545ZM127.725 53.4922H124.926C124.874 53.13 124.77 52.8082 124.612 52.527C124.455 52.2415 124.252 51.9986 124.005 51.7983C123.758 51.598 123.472 51.4446 123.149 51.3381C122.829 51.2315 122.482 51.1783 122.107 51.1783C121.429 51.1783 120.839 51.3466 120.336 51.6832C119.833 52.0156 119.443 52.5014 119.166 53.1406C118.889 53.7756 118.751 54.5469 118.751 55.4545C118.751 56.3878 118.889 57.1719 119.166 57.8068C119.448 58.4418 119.84 58.9212 120.343 59.245C120.845 59.5689 121.427 59.7308 122.088 59.7308C122.458 59.7308 122.801 59.6818 123.117 59.5838C123.436 59.4858 123.72 59.343 123.967 59.1555C124.214 58.9638 124.419 58.7315 124.58 58.4588C124.747 58.1861 124.862 57.875 124.926 57.5256L127.725 57.5384C127.653 58.1392 127.472 58.7188 127.182 59.277C126.896 59.831 126.511 60.3274 126.025 60.7663C125.544 61.201 124.968 61.5462 124.299 61.8018C123.634 62.0533 122.882 62.179 122.043 62.179C120.875 62.179 119.831 61.9148 118.911 61.3864C117.994 60.858 117.27 60.093 116.737 59.0916C116.209 58.0902 115.945 56.8778 115.945 55.4545C115.945 54.027 116.213 52.8125 116.75 51.8111C117.287 50.8097 118.016 50.0469 118.936 49.5227C119.857 48.9943 120.892 48.7301 122.043 48.7301C122.801 48.7301 123.504 48.8366 124.152 49.0497C124.804 49.2628 125.382 49.5739 125.884 49.983C126.387 50.3878 126.796 50.8842 127.112 51.4723C127.431 52.0604 127.636 52.7337 127.725 53.4922ZM129.71 62V48.9091H132.478V54.6811H132.65L137.361 48.9091H140.679L135.821 54.7706L140.736 62H137.425L133.839 56.6179L132.478 58.2798V62H129.71ZM152.932 53.4922H150.133C150.081 53.13 149.977 52.8082 149.819 52.527C149.662 52.2415 149.459 51.9986 149.212 51.7983C148.965 51.598 148.68 51.4446 148.356 51.3381C148.036 51.2315 147.689 51.1783 147.314 51.1783C146.636 51.1783 146.046 51.3466 145.543 51.6832C145.04 52.0156 144.65 52.5014 144.373 53.1406C144.096 53.7756 143.958 54.5469 143.958 55.4545C143.958 56.3878 144.096 57.1719 144.373 57.8068C144.655 58.4418 145.047 58.9212 145.55 59.245C146.052 59.5689 146.634 59.7308 147.295 59.7308C147.665 59.7308 148.008 59.6818 148.324 59.5838C148.643 59.4858 148.927 59.343 149.174 59.1555C149.421 58.9638 149.626 58.7315 149.787 58.4588C149.954 58.1861 150.069 57.875 150.133 57.5256L152.932 57.5384C152.86 58.1392 152.679 58.7188 152.389 59.277C152.104 59.831 151.718 60.3274 151.232 60.7663C150.751 61.201 150.175 61.5462 149.506 61.8018C148.841 62.0533 148.089 62.179 147.25 62.179C146.082 62.179 145.038 61.9148 144.118 61.3864C143.202 60.858 142.477 60.093 141.944 59.0916C141.416 58.0902 141.152 56.8778 141.152 55.4545C141.152 54.027 141.42 52.8125 141.957 51.8111C142.494 50.8097 143.223 50.0469 144.143 49.5227C145.064 48.9943 146.099 48.7301 147.25 48.7301C148.008 48.7301 148.711 48.8366 149.359 49.0497C150.011 49.2628 150.589 49.5739 151.091 49.983C151.594 50.3878 152.003 50.8842 152.319 51.4723C152.638 52.0604 152.843 52.7337 152.932 53.4922ZM154.917 62V48.9091H157.685V54.3104H163.303V48.9091H166.065V62H163.303V56.5923H157.685V62H154.917ZM170.603 62H167.637L172.156 48.9091H175.723L180.236 62H177.27L173.991 51.9006H173.889L170.603 62ZM170.418 56.8544H177.423V59.0149H170.418V56.8544ZM184.579 48.9091V62H181.812V48.9091H184.579ZM197.806 48.9091V62H195.415L189.72 53.7607H189.624V62H186.857V48.9091H189.286L194.936 57.142H195.051V48.9091H197.806Z" fill="black"/>
</svg>
