<svg width="500" height="73" viewBox="0 0 500 73" fill="none" xmlns="http://www.w3.org/2000/svg">
<g clip-path="url(#clip0_5_255)">
<path d="M40.3375 59.2148V51.5495C42.5756 51.0479 44.6741 50.0533 46.4806 48.6378C48.2871 47.2223 49.7563 45.4215 50.7815 43.3662L58.4165 44.6956C56.9567 48.5032 54.5136 51.854 51.3371 54.4051C48.1605 56.9561 44.3645 58.616 40.3375 59.2148Z" fill="black"/>
<path d="M20.8188 51.9791V68.8513C19.0794 67.9794 17.413 66.9685 15.8359 65.8283V57.1942H7.35221C6.19961 55.5434 5.18679 53.799 4.32434 51.9791H20.8188Z" fill="black"/>
<path d="M65.0651 45.8624L71.4596 46.9797C67.2936 60.7829 55.1098 71.0946 40.3375 72.4841V65.929C45.5486 65.3351 50.5086 63.3647 54.7099 60.2193C58.9112 57.0739 62.2029 52.8666 64.2481 48.028C64.5481 47.3138 64.8204 46.5919 65.0651 45.8624Z" fill="black"/>
<path d="M33.6925 0.5V7.06924C27.0394 7.82037 20.8382 10.8129 16.1047 15.5567C11.3712 20.3005 8.38592 26.5142 7.63801 33.18H1C2.57569 15.8412 16.3758 2.03978 33.6925 0.5Z" fill="black"/>
<path d="M33.6925 13.7834V21.4629C30.833 22.1 28.2141 23.5407 26.1428 25.616C24.0714 27.6913 22.6335 30.3151 21.9975 33.18H14.3396C15.0602 28.294 17.331 23.7701 20.8162 20.277C24.3014 16.7839 28.816 14.5072 33.6925 13.7834Z" fill="black"/>
<path d="M59.934 36.5C59.934 37.0692 59.9128 37.6367 59.8723 38.1953L52.3838 36.8872C52.3838 36.7616 52.3838 36.6344 52.3838 36.5088C52.3826 33.003 51.1888 29.6023 48.9992 26.8677C46.8096 24.1331 43.755 22.2279 40.3394 21.4664V13.7834C51.4027 15.401 59.934 24.972 59.934 36.5Z" fill="black"/>
<path d="M73 36.5C73.0003 37.8205 72.929 39.14 72.7865 40.4528L66.4343 39.3444C66.5237 38.4015 66.5684 37.4534 66.5684 36.5C66.573 29.2212 63.9005 22.196 59.0616 16.7668C54.2227 11.3377 47.5567 7.88519 40.3375 7.0692V0.515869C48.1288 1.24863 55.4684 4.5092 61.2414 9.80226V15.6361H66.3902C70.7024 21.7343 73.0126 29.0264 73 36.5Z" fill="black"/>
<path d="M44.9676 36.5C44.9686 38.5361 44.1876 40.4946 42.7866 41.9696C41.6415 43.1727 40.1552 43.9945 38.5288 44.3239C36.9024 44.6533 35.2142 44.4746 33.6925 43.8117V72.5C31.3962 72.2968 29.1248 71.8724 26.9098 71.2324V45.8765H2.07457C1.54605 43.8971 1.18656 41.8763 1 39.8358H29.6147C29.1335 38.7926 28.8842 37.6571 28.8842 36.5079C28.8842 35.3587 29.1335 34.2232 29.6147 33.18C30.3532 31.5917 31.5871 30.287 33.1304 29.4628C34.6737 28.6385 36.4427 28.3395 38.1705 28.6106C39.8983 28.8818 41.4912 29.7086 42.709 30.9662C43.9268 32.2237 44.7034 33.844 44.9217 35.5825C44.9547 35.8871 44.9701 36.1935 44.9676 36.5Z" fill="black"/>
</g>
<path d="M102.092 15.5455L112.112 47.0412H112.496L122.536 15.5455H132.252L117.962 57H106.667L92.3562 15.5455H102.092ZM148.76 57.6072C145.616 57.6072 142.897 56.9393 140.603 55.6033C138.323 54.2539 136.562 52.3782 135.32 49.9762C134.079 47.5607 133.458 44.7607 133.458 41.576C133.458 38.3643 134.079 35.5575 135.32 33.1555C136.562 30.7401 138.323 28.8643 140.603 27.5284C142.897 26.179 145.616 25.5043 148.76 25.5043C151.905 25.5043 154.617 26.179 156.898 27.5284C159.192 28.8643 160.959 30.7401 162.201 33.1555C163.442 35.5575 164.063 38.3643 164.063 41.576C164.063 44.7607 163.442 47.5607 162.201 49.9762C160.959 52.3782 159.192 54.2539 156.898 55.6033C154.617 56.9393 151.905 57.6072 148.76 57.6072ZM148.801 50.9276C150.231 50.9276 151.426 50.5227 152.384 49.7131C153.342 48.8899 154.064 47.7699 154.55 46.353C155.049 44.9361 155.298 43.3235 155.298 41.5153C155.298 39.707 155.049 38.0945 154.55 36.6776C154.064 35.2607 153.342 34.1406 152.384 33.3175C151.426 32.4943 150.231 32.0827 148.801 32.0827C147.357 32.0827 146.143 32.4943 145.157 33.3175C144.186 34.1406 143.45 35.2607 142.951 36.6776C142.465 38.0945 142.222 39.707 142.222 41.5153C142.222 43.3235 142.465 44.9361 142.951 46.353C143.45 47.7699 144.186 48.8899 145.157 49.7131C146.143 50.5227 147.357 50.9276 148.801 50.9276ZM179.433 15.5455V57H170.81V15.5455H179.433ZM196.346 57.587C194.362 57.587 192.595 57.2429 191.043 56.5547C189.491 55.853 188.263 54.8207 187.359 53.4577C186.468 52.0813 186.023 50.3675 186.023 48.3164C186.023 46.5891 186.34 45.1385 186.974 43.9645C187.608 42.7905 188.472 41.8459 189.565 41.1307C190.658 40.4155 191.9 39.8757 193.289 39.5114C194.693 39.147 196.164 38.8906 197.702 38.7422C199.51 38.5533 200.968 38.3778 202.074 38.2159C203.181 38.0405 203.984 37.7841 204.483 37.4467C204.982 37.1094 205.232 36.6101 205.232 35.9489V35.8274C205.232 34.5455 204.827 33.5536 204.017 32.8519C203.221 32.1502 202.088 31.7994 200.617 31.7994C199.065 31.7994 197.83 32.1435 196.913 32.8317C195.995 33.5064 195.388 34.3565 195.091 35.3821L187.116 34.7344C187.521 32.8452 188.317 31.2124 189.504 29.8359C190.692 28.446 192.223 27.38 194.099 26.6378C195.988 25.8821 198.174 25.5043 200.657 25.5043C202.385 25.5043 204.038 25.7067 205.617 26.1115C207.209 26.5163 208.619 27.1438 209.847 27.994C211.089 28.8441 212.067 29.9371 212.782 31.2731C213.497 32.5955 213.855 34.1811 213.855 36.0298V57H205.677V52.6886H205.434C204.935 53.6602 204.267 54.517 203.43 55.2592C202.594 55.9879 201.588 56.5614 200.414 56.9798C199.24 57.3846 197.884 57.587 196.346 57.587ZM198.815 51.636C200.084 51.636 201.204 51.3864 202.176 50.8871C203.147 50.3743 203.91 49.6861 204.463 48.8224C205.016 47.9588 205.293 46.9805 205.293 45.8874V42.5881C205.023 42.7635 204.652 42.9254 204.179 43.0739C203.721 43.2088 203.201 43.337 202.621 43.4585C202.041 43.5664 201.46 43.6676 200.88 43.7621C200.3 43.843 199.774 43.9173 199.301 43.9847C198.289 44.1332 197.405 44.3693 196.65 44.6932C195.894 45.017 195.307 45.4556 194.889 46.0089C194.47 46.5487 194.261 47.2234 194.261 48.033C194.261 49.207 194.686 50.1044 195.536 50.7251C196.4 51.3324 197.493 51.636 198.815 51.636ZM221.685 57V25.9091H230.044V31.3338H230.368C230.935 29.4041 231.886 27.9467 233.222 26.9616C234.558 25.9631 236.097 25.4638 237.837 25.4638C238.269 25.4638 238.735 25.4908 239.234 25.5447C239.733 25.5987 240.172 25.6729 240.55 25.7674V33.4187C240.145 33.2972 239.585 33.1893 238.87 33.0948C238.154 33.0004 237.5 32.9531 236.906 32.9531C235.638 32.9531 234.504 33.2298 233.506 33.783C232.521 34.3228 231.738 35.0785 231.158 36.0501C230.591 37.0217 230.308 38.1417 230.308 39.4102V57H221.685ZM252.418 68.6591C251.325 68.6591 250.299 68.5714 249.341 68.396C248.396 68.234 247.614 68.0249 246.993 67.7685L248.936 61.3317C249.948 61.642 250.859 61.8107 251.669 61.8377C252.492 61.8647 253.2 61.6758 253.794 61.271C254.401 60.8661 254.894 60.1779 255.272 59.2063L255.778 57.8906L244.625 25.9091H253.693L260.13 48.7415H260.454L266.951 25.9091H276.08L263.996 60.3601C263.416 62.0334 262.626 63.4908 261.628 64.7322C260.642 65.9872 259.394 66.9521 257.883 67.6268C256.372 68.315 254.55 68.6591 252.418 68.6591Z" fill="black"/>
<defs>
<clipPath id="clip0_5_255">
<rect width="72" height="72" fill="white" transform="translate(1 0.5)"/>
</clipPath>
</defs>
</svg>
